<?xml version="1.0" encoding="utf-8"?>
<!-- Generator: Adobe Illustrator 21.0.2, SVG Export Plug-In . SVG Version: 6.00 Build 0)  -->
<!DOCTYPE svg PUBLIC "-//W3C//DTD SVG 1.0//EN" "http://www.w3.org/TR/2001/REC-SVG-20010904/DTD/svg10.dtd">
<svg version="1.0" id="Ebene_1" xmlns="http://www.w3.org/2000/svg" xmlns:xlink="http://www.w3.org/1999/xlink" x="0px" y="0px"
	 viewBox="0 0 141.7 40.5" style="enable-background:new 0 0 141.7 40.5;" xml:space="preserve">
<title>Zeichenfläche 1</title>
<path style="fill:#00A9C1;" d="M11.5,11.5C10,11.9,8.5,12.1,7,12c-3.1,0-6.7-1.6-6.7-6C0.3,1.7,3.4,0,7.6,0c1.2,0,2.4,0.2,3.5,0.5
	l-0.2,2.5C10,2.6,9.1,2.3,8.1,2.3c-2.5,0-4.6,1.1-4.6,3.8C3.4,8,5,9.7,6.9,9.8c0.2,0,0.3,0,0.5,0c0.4,0,0.8-0.1,1.1-0.2V7.2H6.7V5
	h4.8V11.5z"/>
<path style="fill:#00A9C1;" d="M14,0.2h8.2v2.2h-5.1v2.4h4.8V7h-4.8v2.6h5.3v2.2H14V0.2z"/>
<path style="fill:#00A9C1;" d="M23.7,0.2h3.2l1.5,8.9h0L30,0.2h3.9l1.6,8.9h0l1.5-8.9h3l-2.6,11.6h-4l-1.7-8.9h0l-1.5,8.9h-4
	L23.7,0.2z"/>
<path style="fill:#00A9C1;" d="M41.7,0.2h8.2v2.2h-5.1v2.4h4.8V7h-4.8v2.6h5.3v2.2h-8.4V0.2z"/>
<path style="fill:#00A9C1;" d="M52.3,0.2h5.5c2.1,0,3.8,0.9,3.8,2.9c0.1,1.4-0.8,2.7-2.2,2.9v0c1,0.3,1.1,1.2,1.7,2.6l1.1,3.2h-3.2
	l-0.7-2.1c-0.6-2-1-2.5-2.2-2.5h-0.6v4.6h-3.1V0.2z M55.4,5h0.8c1,0,2.3,0,2.3-1.3c0-1.1-1.1-1.3-2.3-1.3h-0.8L55.4,5z"/>
<path style="fill:#00A9C1;" d="M63.9,0.2h5.4c2.2,0,3.8,1,3.8,3c0.1,1.3-0.8,2.4-2.1,2.7v0c1.6,0.3,2.3,1.2,2.3,2.6
	c0,2.8-2.5,3.4-4.5,3.4h-4.9L63.9,0.2z M67,4.8h0.9c1,0,2.1-0.2,2.1-1.2c0-1.1-1-1.2-2-1.2H67L67,4.8z M67,9.6h0.9
	c1.1,0,2.3-0.2,2.3-1.4c0-1.3-1.2-1.4-2.3-1.4H67V9.6z"/>
<path style="fill:#00A9C1;" d="M75.4,0.2h8.2v2.2h-5.1v2.4h4.8V7h-4.8v2.6h5.3v2.2h-8.4V0.2z"/>
<path style="fill:#00A9C1;" d="M86,0.2h3.7c3.6,0,5.2,1.2,5.2,3.8c0,2.4-1.7,3.8-4.6,3.8h-1.2v4.1H86V0.2z M89.1,5.6h0.8
	c1.1,0,1.9-0.4,1.9-1.6c0-1.2-0.8-1.6-1.9-1.6h-0.8V5.6z"/>
<path style="fill:#00A9C1;" d="M99.3,0.2h3.8l4.5,11.6h-3.4l-0.9-2.5h-4.4L98,11.8h-3.2L99.3,0.2z M101.2,2.6L101.2,2.6l-1.5,4.6
	h2.9L101.2,2.6z"/>
<path style="fill:#00A9C1;" d="M109.1,0.2h5.5c2.1,0,3.8,0.9,3.8,2.9c0.1,1.4-0.8,2.7-2.2,2.9v0c1,0.3,1.1,1.2,1.7,2.6l1.1,3.2h-3.2
	L115,9.7c-0.6-2-1-2.5-2.2-2.5h-0.7v4.6h-3.1L109.1,0.2z M112.2,5h0.8c1,0,2.3,0,2.3-1.3c0-1.1-1.1-1.3-2.3-1.3h-0.8V5z"/>
<path style="fill:#00A9C1;" d="M120.7,0.2h3.1V5h0l3.5-4.8h3.7l-4.3,5.4l4.6,6.2h-4l-3.6-5.3h0v5.3h-3.1L120.7,0.2z"/>
<path style="fill:#00A9C1;" d="M133.1,9c1,0.5,2.1,0.8,3.2,0.8c1,0,1.9-0.2,1.9-1.1c0-2.2-5.5-0.8-5.5-5c0-2.8,2.7-3.6,5.1-3.6
	c1,0,2,0.1,3,0.4l-0.2,2.4c-0.8-0.4-1.7-0.5-2.6-0.5c-0.8,0-2.1,0.1-2.1,1.1c0,1.9,5.5,0.6,5.5,4.8c0,3-2.5,3.8-5.1,3.8
	c-1.2,0-2.3-0.2-3.5-0.5L133.1,9z"/>
<path style="fill:#00A9C1;" d="M0.8,25.5c1,0.5,2.1,0.8,3.2,0.8c1,0,1.9-0.2,1.9-1.1c0-2.2-5.5-0.8-5.5-5c0-2.8,2.7-3.6,5.1-3.6
	c1,0,2,0.1,3,0.4l-0.2,2.4c-0.8-0.4-1.7-0.5-2.6-0.5c-0.8,0-2.1,0.1-2.1,1.1c0,1.9,5.5,0.6,5.5,4.8c0,3-2.5,3.8-5.1,3.8
	c-1.2,0-2.3-0.2-3.5-0.5L0.8,25.5z"/>
<path style="fill:#00A9C1;" d="M20.5,28.1c-1.1,0.3-2.3,0.5-3.5,0.5c-3.1,0-6.7-1.6-6.7-6c0-4.1,2.8-6.1,6.7-6.1
	c1.2,0,2.3,0.2,3.5,0.6l-0.2,2.5c-0.9-0.5-2-0.8-3-0.8c-2-0.1-3.6,1.5-3.6,3.4c0,0,0,0,0,0c0,0.1,0,0.2,0,0.3
	c-0.1,2,1.5,3.6,3.4,3.7c0.1,0,0.3,0,0.4,0c1,0,2-0.2,2.9-0.6L20.5,28.1z"/>
<path style="fill:#00A9C1;" d="M22.1,16.7h3.1v4.5h3.7v-4.5H32v11.6h-3.1v-5h-3.7v5h-3.1L22.1,16.7z"/>
<path style="fill:#00A9C1;" d="M33.2,16.7h3.2l1.5,8.9h0l1.6-8.9h3.9l1.6,8.9h0l1.5-8.9h3L47,28.4h-4l-1.7-8.9h0l-1.5,8.9h-4
	L33.2,16.7z"/>
<path style="fill:#00A9C1;" d="M50.9,16.7H54v11.6h-3.1V16.7z"/>
<path style="fill:#00A9C1;" d="M56.4,16.7h4l3.9,7.9h0l-0.1-7.9h2.8v11.6h-3.9l-4.1-8h0l0.1,8h-2.9V16.7z"/>
<path style="fill:#00A9C1;" d="M69.4,16.7h4l3.9,7.9h0l-0.1-7.9h2.8v11.6h-3.9l-4.1-8h0l0.1,8h-2.9V16.7z"/>
<path style="fill:#00A9C1;" d="M83.8,18.1h1.5l3.6,8.8l3.7-8.8h1.4v10h-1v-9h0l-3.6,9h-0.8l-3.7-9h0v9h-1V18.1z"/>
<path style="fill:#00A9C1;" d="M103.7,24.6c0,2-1.6,3.6-3.6,3.6c-2,0-3.6-1.6-3.6-3.6c0,0,0,0,0,0v-6.5h1v6.5
	c-0.1,1.5,1,2.7,2.5,2.8c1.5,0.1,2.7-1,2.8-2.5c0-0.1,0-0.2,0-0.3v-6.5h1L103.7,24.6z M98.3,16.1h1.1v1.2h-1.1V16.1z M100.8,16.1
	h1.1v1.2h-1.1V16.1z"/>
<path style="fill:#00A9C1;" d="M106.1,18.1h1v4.4h5.1v-4.4h1v10h-1v-4.7h-5.1v4.7h-1V18.1z"/>
<path style="fill:#00A9C1;" d="M115.6,18.1h1v9.1h4v0.9h-5L115.6,18.1z"/>
<path style="fill:#00A9C1;" d="M122.9,19H120v-0.9h6.9V19h-2.9v9.1h-1V19z"/>
<path style="fill:#00A9C1;" d="M130.3,18.1h1.1l4,10h-1l-1.1-2.7h-5l-1.1,2.7h-1L130.3,18.1z M130.8,19.1l-2.2,5.5h4.3L130.8,19.1z"
	/>
<path style="fill:#00A9C1;" d="M136.7,18.1h1v9.1h4v0.9h-5L136.7,18.1z"/>
<path style="fill:#00A9C1;" d="M0.3,34.6H1l2.9,5.1h0v-5.1h0.6v5.8H3.7l-2.9-5h0v5H0.3V34.6z"/>
<path style="fill:#00A9C1;" d="M6.9,35H6.3v-0.7h0.5V35z M6.3,36.2h0.5v4.2H6.3V36.2z"/>
<path style="fill:#00A9C1;" d="M11.5,40.2c-0.4,0.2-0.8,0.2-1.2,0.2c-1.4,0-1.9-0.9-1.9-2.2c0-1.3,0.7-2.2,1.8-2.2
	c1.2,0,1.7,1,1.7,2.1v0.3H8.9c-0.1,0.8,0.4,1.5,1.2,1.6c0.1,0,0.1,0,0.2,0c0.4,0,0.8-0.1,1.2-0.3L11.5,40.2z M11.3,38
	c0-0.7-0.3-1.5-1.1-1.5c-0.7,0.1-1.3,0.7-1.2,1.5H11.3z"/>
<path style="fill:#00A9C1;" d="M16.7,40.4h-0.5v-0.7h0c-0.2,0.5-0.8,0.8-1.3,0.8c-1.2,0-1.7-1-1.7-2.2c0-1.3,0.5-2.2,1.7-2.2
	c0.6,0,1.1,0.3,1.3,0.8h0v-2.7h0.5V40.4z M14.9,40c0.9,0,1.2-1,1.2-1.8s-0.3-1.8-1.2-1.8c-1,0-1.2,0.9-1.2,1.8S13.9,40,14.9,40
	L14.9,40z"/>
<path style="fill:#00A9C1;" d="M21.3,40.2c-0.4,0.2-0.8,0.2-1.2,0.2c-1.4,0-1.9-0.9-1.9-2.2c0-1.3,0.7-2.2,1.8-2.2
	c1.2,0,1.7,1,1.7,2.1v0.3h-2.9c-0.1,0.8,0.4,1.5,1.2,1.6c0.1,0,0.1,0,0.2,0c0.4,0,0.8-0.1,1.2-0.3L21.3,40.2z M21,38
	c0-0.7-0.3-1.5-1.1-1.5c-0.7,0.1-1.3,0.7-1.2,1.5H21z"/>
<path style="fill:#00A9C1;" d="M23.1,37.1c0-0.3,0-0.6,0-0.9h0.5V37h0c0.1-0.5,0.6-0.9,1.1-0.9c0.1,0,0.2,0,0.4,0v0.5
	c-0.1,0-0.3-0.1-0.4,0c-0.8,0-1,0.9-1,1.7v2.1h-0.5L23.1,37.1z"/>
<path style="fill:#00A9C1;" d="M25.7,37.9h2.1v0.6h-2.1V37.9z"/>
<path style="fill:#00A9C1;" d="M29.5,34.6H31c1,0,1.7,0.4,1.7,1.5c0,0.7-0.6,1.3-1.3,1.3v0c0.5,0.1,0.6,0.3,0.7,0.7l1,2.2h-0.6
	l-0.8-2c-0.3-0.7-0.6-0.8-1.1-0.8h-0.5v2.7h-0.6L29.5,34.6z M30.1,37.2h0.6c0.7,0,1.4-0.3,1.4-1.1c0-0.9-0.7-1-1.5-1h-0.6L30.1,37.2
	z"/>
<path style="fill:#00A9C1;" d="M37,39.7L37,39.7c-0.3,0.5-0.8,0.8-1.4,0.8c-1.2,0-1.4-0.8-1.4-1.2c0-1.4,1.5-1.5,2.6-1.5h0.1v-0.2
	c0-0.7-0.3-1.1-1-1.1c-0.4,0-0.9,0.1-1.2,0.3v-0.5c0.4-0.2,0.8-0.3,1.2-0.3c1,0,1.5,0.5,1.5,1.6v1.9c0,0.3,0,0.6,0,0.9H37L37,39.7z
	 M36.9,38.2h-0.1c-0.9,0-2,0.1-2,1c0,0.6,0.4,0.8,0.9,0.8c1.2,0,1.2-1.1,1.2-1.5V38.2z"/>
<path style="fill:#00A9C1;" d="M44.2,40.4v-2.8c0-0.6-0.2-1.1-0.9-1.1c-0.6,0-1.1,0.5-1.1,1.5v2.3h-0.5v-2.8c0-0.6-0.2-1.1-0.9-1.1
	c-0.6,0-1.1,0.5-1.1,1.5v2.3h-0.5v-3.2c0-0.3,0-0.7,0-1h0.5v0.7l0,0c0.2-0.5,0.7-0.9,1.3-0.8c0.5,0,1,0.4,1.1,0.9h0
	c0.2-0.6,0.8-0.9,1.3-0.9c0.7,0,1.3,0.5,1.3,1.2c0,0.1,0,0.1,0,0.2v2.9L44.2,40.4z"/>
<path style="fill:#00A9C1;" d="M46.2,39.8c0.3,0.2,0.7,0.3,1.1,0.3c0.5,0,0.9-0.3,0.9-0.8c0-1-2-0.8-2-2.1c0-0.8,0.7-1.1,1.4-1.1
	c0.4,0,0.7,0.1,1,0.2l0,0.5c-0.3-0.1-0.6-0.2-0.9-0.2c-0.5,0-0.9,0.2-0.9,0.7c0,0.8,2.1,0.7,2.1,2.1c0,0.9-0.8,1.2-1.5,1.2
	c-0.4,0-0.8-0.1-1.2-0.2L46.2,39.8z"/>
<path style="fill:#00A9C1;" d="M52.1,36.6h-1v2.7c0,0.4,0.1,0.7,0.6,0.7c0.2,0,0.3,0,0.5-0.1l0,0.4c-0.2,0.1-0.4,0.1-0.6,0.1
	c-0.9,0-1-0.6-1-1.4v-2.5h-0.8v-0.4h0.8v-1l0.5-0.2v1.2h1V36.6z"/>
<path style="fill:#00A9C1;" d="M56,39.7L56,39.7c-0.3,0.5-0.8,0.8-1.4,0.8c-1.2,0-1.4-0.8-1.4-1.2c0-1.4,1.5-1.5,2.6-1.5H56v-0.2
	c0-0.7-0.3-1.1-1-1.1c-0.4,0-0.9,0.1-1.2,0.3v-0.5c0.4-0.2,0.8-0.3,1.2-0.3c1,0,1.5,0.5,1.5,1.6v1.9c0,0.3,0,0.6,0,0.9H56V39.7z
	 M56,38.2h-0.2c-0.9,0-2,0.1-2,1c0,0.6,0.4,0.8,0.9,0.8c1.2,0,1.2-1.1,1.2-1.5L56,38.2z"/>
<path style="fill:#00A9C1;" d="M61.5,40.4H61v-0.7h0c-0.2,0.5-0.8,0.8-1.3,0.8c-1.2,0-1.7-1-1.7-2.2c0-1.3,0.5-2.2,1.7-2.2
	c0.6,0,1.1,0.3,1.3,0.8h0v-2.7h0.5L61.5,40.4z M59.8,40c0.9,0,1.2-1,1.2-1.8s-0.3-1.8-1.2-1.8c-1,0-1.2,0.9-1.2,1.8S58.8,40,59.8,40
	L59.8,40z"/>
<path style="fill:#00A9C1;" d="M65.1,36.6h-1v2.7c0,0.4,0.1,0.7,0.6,0.7c0.2,0,0.3,0,0.5-0.1l0,0.4c-0.2,0.1-0.4,0.1-0.6,0.1
	c-0.9,0-1-0.6-1-1.4v-2.5h-0.8v-0.4h0.8v-1l0.5-0.2v1.2h1V36.6z"/>
<path style="fill:#00A9C1;" d="M72.6,39c0.3-0.5,0.5-1.1,0.5-1.8h0.5c0,0.7-0.2,1.5-0.6,2.1l1,1.1h-0.7l-0.6-0.6
	c-0.4,0.5-1.1,0.8-1.8,0.8c-1,0-1.9-0.5-1.9-1.6c0-0.8,0.6-1.5,1.4-1.7c-0.4-0.4-0.7-0.9-0.8-1.4c0.1-0.8,0.8-1.3,1.5-1.3
	c0,0,0,0,0,0h0c0.7-0.1,1.3,0.4,1.3,1.1c0,0,0,0,0,0c0,0,0,0.1,0,0.1c0,0.9-0.7,1.2-1.4,1.6L72.6,39z M70.6,37.5
	c-0.6,0.2-1,0.7-1.1,1.3c0,0.7,0.6,1.2,1.2,1.2c0,0,0,0,0,0c0,0,0.1,0,0.1,0c0.5,0,1.1-0.3,1.4-0.7L70.6,37.5z M70.8,37
	c0.5-0.2,1.1-0.5,1.1-1.2c0-0.4-0.3-0.8-0.7-0.8c0,0-0.1,0-0.1,0c-0.5,0-0.9,0.3-0.9,0.8c0,0,0,0,0,0c0,0,0,0,0,0.1
	C70.2,36.2,70.4,36.7,70.8,37L70.8,37z"/>
<path style="fill:#00A9C1;" d="M77.8,34.6h0.7l2.9,5.1h0v-5.1H82v5.8h-0.8l-2.9-5h0v5h-0.6V34.6z"/>
<path style="fill:#00A9C1;" d="M84.4,35h-0.5v-0.7h0.5V35z M83.9,36.2h0.5v4.2h-0.5V36.2z"/>
<path style="fill:#00A9C1;" d="M89,40.2c-0.4,0.2-0.8,0.2-1.2,0.2c-1.4,0-1.9-0.9-1.9-2.2c0-1.3,0.7-2.2,1.8-2.2
	c1.2,0,1.7,1,1.7,2.1v0.3h-2.9c-0.1,0.8,0.4,1.5,1.2,1.6c0.1,0,0.1,0,0.2,0c0.4,0,0.8-0.1,1.2-0.3L89,40.2z M88.8,38
	c0-0.7-0.3-1.5-1.1-1.5c-0.7,0.1-1.3,0.7-1.2,1.5H88.8z"/>
<path style="fill:#00A9C1;" d="M94.2,40.4h-0.5v-0.7h0c-0.2,0.5-0.8,0.8-1.3,0.8c-1.2,0-1.7-1-1.7-2.2c0-1.3,0.5-2.2,1.7-2.2
	c0.6,0,1.1,0.3,1.3,0.8h0v-2.7h0.5V40.4z M92.4,40c0.9,0,1.2-1,1.2-1.8s-0.3-1.8-1.2-1.8c-1,0-1.2,0.9-1.2,1.8S91.4,40,92.4,40
	L92.4,40z"/>
<path style="fill:#00A9C1;" d="M98.8,40.2c-0.4,0.2-0.8,0.2-1.2,0.2c-1.4,0-1.9-0.9-1.9-2.2c0-1.3,0.7-2.2,1.8-2.2
	c1.2,0,1.7,1,1.7,2.1v0.3h-2.9c-0.1,0.8,0.4,1.5,1.2,1.6c0.1,0,0.1,0,0.2,0c0.4,0,0.8-0.1,1.2-0.3V40.2z M98.6,38
	c0-0.7-0.3-1.5-1.1-1.5c-0.7,0.1-1.3,0.7-1.2,1.5H98.6z"/>
<path style="fill:#00A9C1;" d="M100.6,37.1c0-0.3,0-0.6,0-0.9h0.5V37h0c0.1-0.5,0.6-0.9,1.1-0.9c0.1,0,0.2,0,0.4,0v0.5
	c-0.1,0-0.3-0.1-0.4,0c-0.8,0-1,0.9-1,1.7v2.1h-0.5L100.6,37.1z"/>
<path style="fill:#00A9C1;" d="M103.2,37.9h2.1v0.6h-2.1V37.9z"/>
<path style="fill:#00A9C1;" d="M106.5,34.6h1.4c0.9,0,1.8,0.3,1.8,1.4c0.1,0.7-0.4,1.2-1.1,1.3v0c0.7,0.1,1.2,0.7,1.2,1.4
	c0,1.3-1,1.6-2.2,1.6h-1.1V34.6z M107.1,39.9h0.6c0.8,0,1.6-0.2,1.6-1.1c0-1-0.9-1.1-1.7-1.1h-0.5L107.1,39.9z M107.1,37.1h0.6
	c0.6,0,1.4-0.2,1.4-1.1c0-0.8-0.8-1-1.3-1h-0.8L107.1,37.1z"/>
<path style="fill:#00A9C1;" d="M114.5,40.2c-0.4,0.2-0.8,0.2-1.2,0.2c-1.4,0-1.9-0.9-1.9-2.2c0-1.3,0.7-2.2,1.8-2.2
	c1.2,0,1.7,1,1.7,2.1v0.3h-2.9c-0.1,0.8,0.4,1.5,1.2,1.6c0.1,0,0.1,0,0.2,0c0.4,0,0.8-0.1,1.2-0.3L114.5,40.2z M114.2,38
	c0-0.7-0.3-1.5-1.1-1.5c-0.7,0.1-1.3,0.7-1.2,1.5H114.2z"/>
<path style="fill:#00A9C1;" d="M119.2,40.2c-0.4,0.2-0.8,0.2-1.2,0.2c-1.4,0-1.9-0.9-1.9-2.2c0-1.3,0.7-2.2,1.8-2.2
	c1.2,0,1.7,1,1.7,2.1v0.3h-2.9c-0.1,0.8,0.4,1.5,1.2,1.6c0.1,0,0.1,0,0.2,0c0.4,0,0.8-0.1,1.2-0.3L119.2,40.2z M118.9,38
	c0-0.7-0.3-1.5-1.1-1.5c-0.7,0.1-1.3,0.7-1.2,1.5H118.9z"/>
<path style="fill:#00A9C1;" d="M120.9,37.1c0-0.3,0-0.6,0-0.9h0.5V37h0c0.1-0.5,0.6-0.9,1.1-0.9c0.1,0,0.2,0,0.4,0v0.5
	c-0.1,0-0.3-0.1-0.4,0c-0.8,0-1,0.9-1,1.7v2.1h-0.5L120.9,37.1z"/>
<path style="fill:#00A9C1;" d="M124.1,34.2h0.5v2.7h0c0.2-0.5,0.8-0.8,1.3-0.8c1.2,0,1.7,0.9,1.7,2.2c0,1.2-0.6,2.2-1.7,2.2
	c-0.6,0-1.1-0.3-1.3-0.8h0v0.7h-0.5L124.1,34.2z M125.9,36.5c-1,0-1.2,1-1.2,1.8s0.3,1.8,1.2,1.8c1,0,1.2-0.9,1.2-1.8
	S126.9,36.5,125.9,36.5z"/>
<path style="fill:#00A9C1;" d="M131.7,39.7L131.7,39.7c-0.3,0.5-0.8,0.8-1.4,0.8c-1.2,0-1.4-0.8-1.4-1.2c0-1.4,1.5-1.5,2.6-1.5h0.1
	v-0.2c0-0.7-0.3-1.1-1-1.1c-0.4,0-0.9,0.1-1.2,0.3v-0.5c0.4-0.2,0.8-0.3,1.2-0.3c1,0,1.5,0.5,1.5,1.6v1.9c0,0.3,0,0.6,0,0.9h-0.5
	L131.7,39.7z M131.6,38.2h-0.1c-0.9,0-2,0.1-2,1c0,0.6,0.4,0.8,0.9,0.8c1.2,0,1.2-1.1,1.2-1.5L131.6,38.2z"/>
<path style="fill:#00A9C1;" d="M136.6,36.7c-0.3-0.1-0.6-0.2-0.9-0.2c-0.9,0-1.6,0.7-1.6,1.5c0,0.1,0,0.1,0,0.2
	c-0.1,0.9,0.6,1.7,1.4,1.8c0,0,0,0,0,0c0,0,0.1,0,0.1,0c0.3,0,0.6-0.1,1-0.2l0,0.5c-0.3,0.1-0.7,0.2-1.1,0.1c-1.1,0-2-0.9-2-2
	c0-0.1,0-0.2,0-0.2c-0.1-1.1,0.7-2.1,1.9-2.2c0.1,0,0.1,0,0.2,0c0.3,0,0.7,0.1,1,0.2L136.6,36.7z"/>
<path style="fill:#00A9C1;" d="M138,34.2h0.5v2.7h0c0.2-0.5,0.8-0.8,1.3-0.8c1.1,0,1.4,0.8,1.4,1.8v2.5h-0.5v-2.5
	c0-0.7-0.1-1.4-1-1.4c-0.9,0-1.2,0.9-1.2,1.6v2.3H138L138,34.2z"/>
<rect y="31.2" style="fill:#00A9C1;" width="141.4" height="1"/>
</svg>
