<svg width="205" height="50" viewBox="0 0 205 50" fill="none" xmlns="http://www.w3.org/2000/svg">
<g clip-path="url(#clip0_2374_3592)">
<path d="M69.9392 36.3373C63.8906 36.3373 59.3994 31.6498 59.3994 25.7268V25.6541C59.3994 19.8038 63.8181 15.0073 70.1203 15.0073C73.9957 15.0073 76.3137 16.3155 78.2333 18.205L75.372 21.548C73.7784 20.0945 72.1848 19.2224 70.1203 19.2224C66.6432 19.2224 64.1803 22.0931 64.1803 25.6541V25.7268C64.1803 29.2515 66.607 32.1948 70.1203 32.1948C72.4745 32.1948 73.9233 31.2501 75.5169 29.7966L78.3782 32.7035C76.2413 34.9201 73.8871 36.3373 69.9392 36.3373Z" fill="#2B2E52"/>
<path d="M94.2419 35.9738L89.8232 29.3968H86.2737V35.9738H81.7463V15.3706H91.1271C95.9804 15.3706 98.8779 17.9142 98.8779 22.1657V22.2383C98.8779 25.5814 97.1032 27.6526 94.4592 28.6337L99.5299 35.9738H94.2419ZM94.3143 22.3837C94.3143 20.4578 92.9742 19.4404 90.7649 19.4404H86.2737V25.3633H90.8373C93.0467 25.3633 94.3143 24.2005 94.3143 22.4564V22.3837Z" fill="#2B2E52"/>
<path d="M103.913 35.9738V15.3706H119.414V19.404H108.404V23.5828H118.074V27.6162H108.404V31.9404H119.559V35.9738H103.913Z" fill="#2B2E52"/>
<path d="M147.086 36.1191H143.138L138.502 22.638L133.866 36.1191H129.918L122.891 15.3705H127.745L131.982 29.324L136.582 15.2979H140.53L145.13 29.324L149.368 15.3705H154.076L147.086 36.1191Z" fill="#2B2E52"/>
<path d="M158.132 35.9738V15.3706H162.623V31.8677H172.873V35.9738H158.132Z" fill="#2B2E52"/>
<path d="M177.147 35.9738V15.3706H181.675V35.9738H177.147Z" fill="#2B2E52"/>
<path d="M199.712 35.9738L195.112 28.9244L190.476 35.9738H185.333L192.504 25.5087L185.623 15.3706H190.911L195.221 22.0567L199.567 15.3706H204.71L197.829 25.436L205 35.9738H199.712Z" fill="#2B2E52"/>
<path d="M4.16519 0H45.6723C47.9541 0 49.8375 1.8532 49.8375 4.17878V45.8576C49.8375 48.1468 47.9903 50.0363 45.6723 50.0363H4.16519C1.88339 50.0363 0 48.1831 0 45.8576V4.17878C0 1.8532 1.84717 0 4.16519 0Z" fill="#FF6443"/>
<path d="M32.2351 13.9536C32.2351 14.8984 31.8729 15.8431 31.1485 16.5699C30.0257 17.6963 28.3234 17.9507 26.9109 17.2603C25.7519 16.6789 24.4842 16.3882 23.1079 16.3882C18.6167 16.3882 14.9224 19.8402 14.524 24.2734C13.872 24.0553 13.1476 23.9463 12.4233 23.9463C10.3588 23.9463 8.5116 24.8184 7.20771 26.2356C7.13527 25.3271 7.13527 24.4187 7.24393 23.4739C8.00453 15.6251 14.4877 9.44777 22.3473 9.0844C25.2086 8.93905 27.8888 9.55678 30.2793 10.7559C31.5469 11.3736 32.2351 12.6454 32.2351 13.9536Z" fill="white"/>
<path d="M41.5073 29.3242C37.5232 33.2123 33.4667 37.1367 33.4305 37.1731C30.6416 39.535 27.0559 40.9521 23.1442 40.9521C19.7034 40.9521 16.5524 39.862 13.9446 38.0088C16.6248 37.4274 18.7255 35.3925 19.3774 32.7399C20.5002 33.285 21.8041 33.612 23.1442 33.612C25.0638 33.612 26.8386 32.9943 28.2511 31.9405C28.3236 31.9042 32.4163 27.9071 36.4004 24.019C37.8492 22.6018 40.131 22.6382 41.5435 24.0553C42.9923 25.5452 42.9923 27.9071 41.5073 29.3242Z" fill="white"/>
<path d="M20 31.0003C20 35.4505 16.6225 39 12.5 39C8.37748 39 5 35.3975 5 31.0003C5 26.5501 8.37748 23.0006 12.5 23.0006C16.6225 22.9476 20 26.5501 20 31.0003Z" fill="#FF6443"/>
<path d="M17.9284 31.0684C17.9284 34.1207 15.4655 36.5553 12.4593 36.5553C9.45313 36.5553 6.99023 34.0844 6.99023 31.0684C6.99023 28.016 9.45313 25.5815 12.4593 25.5815C15.4655 25.5451 17.9284 28.016 17.9284 31.0684Z" fill="white"/>
</g>
<defs>
<clipPath id="clip0_2374_3592">
<rect width="205" height="50" fill="white"/>
</clipPath>
</defs>
</svg>
