<svg width="22" height="25" viewBox="0 0 22 25" fill="none" xmlns="http://www.w3.org/2000/svg">
<path d="M14.3878 0H5.2464C1.93059 0 0 1.74735 0 4.7414V14.8819C0 17.925 1.93059 19.6331 5.2464 19.6331H14.3878C17.7571 19.6331 19.6331 17.925 19.6331 14.8819V4.7414C19.6331 1.74735 17.7571 0 14.3878 0Z" fill="#323DA5"/>
<rect x="4.36328" y="4.09033" width="10.9073" height="4.36291" rx="2.18146" fill="#D5D9FB"/>
<path fill-rule="evenodd" clip-rule="evenodd" d="M10.6756 23.2776L9.96578 11.7119C9.9417 11.3201 10.1461 10.9486 10.4937 10.7523C10.8413 10.556 11.2725 10.5687 11.6074 10.7849L21.4941 17.169C21.8577 17.4038 22.0373 17.8323 21.9468 18.2492C21.8566 18.6645 21.5155 18.9859 21.084 19.0561L15.8942 19.9004L12.5516 23.8739C12.2748 24.203 11.8202 24.3329 11.4058 24.2011C10.9914 24.0694 10.7017 23.703 10.6756 23.2776Z" fill="#D5D9FB"/>
</svg>
