<svg width="24" height="20" viewBox="0 0 24 20" fill="none" xmlns="http://www.w3.org/2000/svg">
<path opacity="0.4" d="M0.000151336 8.43351C-0.0102889 9.34079 0.548989 10.1573 1.39872 10.4755V6.5874C1.39872 6.53145 1.42667 6.44755 1.42667 6.3916C0.571208 6.70717 0.00223939 7.52161 0.000151336 8.43351Z" fill="white"/>
<path opacity="0.4" d="M7.63644 13.2447H3.97211L5.34274 18.2237C5.54571 18.9835 6.23455 19.5116 7.02105 19.5104C7.58065 19.517 8.11011 19.2575 8.44762 18.8111C8.7884 18.3864 8.8935 17.8192 8.72731 17.3007L7.63644 13.2447Z" fill="white"/>
<path d="M1.42671 6.36358H1.45466V6.33563C1.45466 6.36358 1.45466 6.36358 1.42671 6.36358Z" fill="black"/>
<path opacity="0.4" d="M21.4826 5.97198H21.2588V11.0069H21.4826C22.8729 11.0069 24 9.87981 24 8.48949C24 7.09911 22.8729 5.97198 21.4826 5.97198Z" fill="white"/>
<path d="M2.2379 6.58735V10.5594C2.26815 11.588 3.11097 12.406 4.13996 12.4055H9.23085V4.85309H4.13996C3.13298 4.85309 2.2379 5.58037 2.2379 6.58735Z" fill="white"/>
<path d="M10.07 12.5174L20.4196 16.6573V0.489502L10.07 4.62937V12.5174Z" fill="white"/>
</svg>
