<svg width="22" height="24" viewBox="0 0 22 24" fill="none" xmlns="http://www.w3.org/2000/svg">
<path fill-rule="evenodd" clip-rule="evenodd" d="M7.13641 3.69795H14.5076V1.98169H7.13641V3.69795ZM5.45958 2.052V2.06055C4.88418 2.11288 4.31494 2.22715 3.76115 2.3991V2.39269C3.74469 2.39962 3.72918 2.40494 3.71431 2.41006C3.69478 2.41677 3.67633 2.42311 3.65821 2.43221C3.61395 2.44289 3.57072 2.45891 3.52954 2.4792C3.40808 2.51871 3.28662 2.56571 3.17236 2.61377C3.14199 2.62551 3.11163 2.63913 3.08126 2.65275C3.05089 2.66636 3.02053 2.67998 2.99016 2.69173C2.94848 2.71148 2.90499 2.73311 2.86151 2.75473L2.86149 2.75474C2.818 2.77637 2.77451 2.79799 2.73282 2.81775L2.52695 2.9363C2.48889 2.95571 2.45365 2.97848 2.4177 3.00171L2.4177 3.00171C2.39629 3.01555 2.37463 3.02955 2.35196 3.0431C2.04213 3.24281 1.75494 3.4767 1.49554 3.74263L1.4801 3.75865C1.44603 3.79837 1.4121 3.8369 1.37864 3.87491L1.37864 3.87491C1.32211 3.93912 1.2669 4.00183 1.21453 4.06623L1.19908 4.08118C0.357073 5.24316 -0.0649628 6.67533 0.00812139 8.12673V8.58704H1.67053V8.12246C1.67053 6.09969 2.31491 4.84053 3.7488 4.19546C4.29641 3.96371 4.87491 3.82059 5.4637 3.76826H5.47914V2.05948L5.45958 2.052ZM20.3976 4.05995L20.4048 4.0749C21.2458 5.23794 21.6658 6.67119 21.5916 8.12258V8.58716H19.9303V8.11084C19.9653 7.25431 19.7934 6.40205 19.429 5.63203C19.079 4.97308 18.519 4.46151 17.8427 4.18383C17.3044 3.95208 16.7341 3.8079 16.1525 3.75664V2.0564C16.7279 2.1098 17.2972 2.223 17.852 2.39495V2.38641C17.8832 2.40055 17.907 2.40896 17.9478 2.4234L17.9549 2.42592C17.9739 2.43262 17.9916 2.43932 18.009 2.44594C18.0333 2.45515 18.0572 2.46421 18.0836 2.47291C18.1974 2.51025 18.3038 2.55426 18.4134 2.59954L18.4325 2.60748C18.4831 2.62523 18.5307 2.64724 18.5736 2.66707C18.5875 2.6735 18.6009 2.67969 18.6137 2.68544C18.7043 2.72496 18.7969 2.77195 18.8711 2.81147C18.9205 2.83712 18.9686 2.86457 19.0138 2.89031C19.0382 2.90423 19.0617 2.91765 19.0841 2.93001C19.121 2.95038 19.1531 2.97217 19.1839 2.99313C19.2064 3.00843 19.2283 3.02329 19.2509 3.03681C19.5618 3.23759 19.852 3.47255 20.1145 3.73635L20.1238 3.75237C20.2205 3.84955 20.3121 3.95208 20.3976 4.05995Z" fill="#D5D9FB"/>
<path d="M16.1997 0.860313V4.64215C16.1997 5.11866 15.8131 5.5046 15.3357 5.5046C14.8584 5.5046 14.4717 5.11866 14.4717 4.64215V0.868938C14.4674 0.392435 14.8519 0.00325453 15.3292 2.03481e-05C15.8066 -0.00321384 16.1965 0.379498 16.1997 0.856001V0.860313Z" fill="#323DA5"/>
<path d="M7.12839 0.874001V4.64649C7.12839 5.12506 6.74128 5.51309 6.26385 5.51309C5.78642 5.51309 5.40039 5.12506 5.40039 4.64649V0.874001C5.40039 0.395434 5.78642 0.00848389 6.26385 0.00848389C6.74128 0.00848389 7.12839 0.395434 7.12839 0.874001Z" fill="#323DA5"/>
<path fill-rule="evenodd" clip-rule="evenodd" d="M0 17.8923V8.58716H21.6V17.8923C21.6 21.95 19.3339 24 14.8429 24H6.74678C2.26609 24 0 21.95 0 17.8923ZM9.80625 13.7601C9.80625 14.3231 10.2595 14.7798 10.8054 14.7798C11.3513 14.7798 11.7942 14.3231 11.7942 13.7495C11.7942 13.1971 11.3513 12.7404 10.8054 12.7297H10.7951C10.2492 12.7404 9.80625 13.1971 9.80625 13.7601ZM15.7392 14.7798C15.1933 14.7798 14.7504 14.3231 14.7504 13.7601C14.7504 13.1971 15.183 12.7404 15.7392 12.7404C16.2852 12.7404 16.7281 13.1971 16.7281 13.7601C16.7281 14.3231 16.2852 14.7798 15.7392 14.7798ZM15.7393 19.135C15.1934 19.135 14.7504 18.6782 14.7401 18.1152C14.7401 17.5522 15.1831 17.0955 15.729 17.0955H15.7393C16.2852 17.0955 16.7281 17.5522 16.7281 18.1152C16.7281 18.6782 16.2852 19.135 15.7393 19.135ZM10.8054 19.135C10.2595 19.135 9.80625 18.6782 9.80625 18.1152C9.80625 17.5522 10.2492 17.0955 10.7951 17.0849H10.8054C11.3513 17.0955 11.7839 17.5522 11.7942 18.1046C11.7942 18.6782 11.3513 19.135 10.8054 19.135ZM4.87222 13.7601C4.87222 14.3231 5.31514 14.7798 5.86106 14.7798C6.41728 14.7798 6.8602 14.3125 6.8499 13.7495C6.8499 13.1865 6.40698 12.7297 5.87136 12.7297H5.86106C5.31514 12.7297 4.87222 13.1971 4.87222 13.7601ZM5.86109 19.135C5.31517 19.135 4.87225 18.6782 4.87225 18.1152C4.86195 17.5522 5.30486 17.0849 5.86109 17.0849C6.40701 17.0849 6.84993 17.5416 6.84993 18.1046C6.84993 18.6676 6.40701 19.135 5.86109 19.135Z" fill="#323DA5"/>
</svg>
