<svg width="23" height="20" viewBox="0 0 23 20" fill="none" xmlns="http://www.w3.org/2000/svg">
<path d="M20.9336 5.81494H2.06641C1.69396 5.81494 1.39258 5.55828 1.39258 5.2411V1.72153C1.39258 0.77224 2.29937 0 3.41406 0H19.5859C20.7006 0 21.6074 0.77224 21.6074 1.72153V5.2411C21.6074 5.55828 21.306 5.81494 20.9336 5.81494Z" fill="#D5D9FB"/>
<path d="M19.5859 0H11.5V5.81494H20.9336C21.306 5.81494 21.6074 5.55828 21.6074 5.2411V1.72153C21.6074 0.77224 20.7006 0 19.5859 0Z" fill="#D5D9FB"/>
<path d="M1.36657 12.1269C1.36679 12.126 1.36688 12.1256 1.36688 12.1256L0.0263249 6.68692C-0.068011 6.17046 0.0937077 5.65396 0.471096 5.27523C0.861872 4.88505 1.42784 4.66699 2.02081 4.66699H20.9419C21.5349 4.66699 22.1009 4.88505 22.4917 5.27523C22.8691 5.654 23.0308 6.17046 22.9365 6.66397L21.5959 12.1283L22.9365 17.567C23.0308 18.0834 22.8691 18.5999 22.4917 18.9786C22.1009 19.3689 21.535 19.5869 20.942 19.5869H2.02081C1.42784 19.5869 0.861827 19.3689 0.471051 18.9786C0.0937077 18.5999 -0.068011 18.0834 0.0263249 17.5899C0.0263249 17.5899 1.3433 12.2216 1.36657 12.1269V12.1269Z" fill="#323DA5"/>
<path d="M1.36688 12.1257C1.36688 12.1257 1.36679 12.1261 1.36657 12.127H21.5963L22.9365 6.66399C23.0308 6.17048 22.8691 5.65401 22.4917 5.27523C22.1009 4.88505 21.535 4.66699 20.942 4.66699H2.02081C1.42784 4.66699 0.861827 4.88505 0.471051 5.27523C0.0937077 5.65401 -0.068011 6.17048 0.0263249 6.68694L1.36688 12.1257Z" fill="#323DA5"/>
<path d="M8.78632 16.144C7.6466 16.144 6.62468 15.5293 6.245 14.6136C6.12061 14.3149 6.3042 13.9871 6.65563 13.8818C7.00503 13.7753 7.39131 13.9328 7.51503 14.2315C7.70518 14.6887 8.21644 14.9964 8.78632 14.9964C9.52923 14.9964 10.134 14.4814 10.134 13.8487C10.134 13.216 9.52923 12.701 8.78632 12.701H7.94866C7.57689 12.701 7.27483 12.4444 7.27483 12.1272C7.27483 11.81 7.57689 11.5534 7.94866 11.5534H8.78632C9.52923 11.5534 10.134 11.0384 10.134 10.4057C10.134 9.77302 9.52923 9.25802 8.78632 9.25802C8.21644 9.25802 7.70518 9.56567 7.51498 10.0229C7.39127 10.3222 7.00436 10.4791 6.65558 10.3726C6.3042 10.2673 6.12061 9.93947 6.24495 9.64077C6.62468 8.72508 7.6466 8.11035 8.78632 8.11035C10.2728 8.11035 11.4816 9.13977 11.4816 10.4057C11.4816 11.0905 11.1276 11.7063 10.567 12.1272C11.1276 12.548 11.4816 13.1639 11.4816 13.8487C11.4816 15.1146 10.2728 16.144 8.78632 16.144V16.144Z" fill="#D5D9FB"/>
<path d="M6.65556 10.3725C7.00434 10.479 7.39125 10.3221 7.51497 10.0229C7.70517 9.56561 8.21647 9.25797 8.78631 9.25797C9.52923 9.25797 10.134 9.77295 10.134 10.4056C10.134 11.0382 9.52923 11.5532 8.78631 11.5532H7.94864C7.57687 11.5532 7.27486 11.8098 7.27481 12.127H10.5671C11.1276 11.7061 11.4816 11.0903 11.4816 10.4056C11.4816 9.13973 10.2728 8.11035 8.78631 8.11035C7.64659 8.11035 6.62466 8.72506 6.24498 9.64071C6.12059 9.93939 6.30418 10.2672 6.65556 10.3725V10.3725Z" fill="#D5D9FB"/>
<path d="M15.5247 16.144C15.1522 16.144 14.8508 15.8874 14.8508 15.5702V9.75613L13.8769 10.3092C13.5663 10.4841 13.1485 10.4135 12.9425 10.1501C12.7359 9.88617 12.8195 9.53031 13.1294 9.35433L15.1509 8.20665C15.3575 8.08951 15.624 8.07834 15.8425 8.17807C16.0616 8.27784 16.1985 8.4723 16.1985 8.68412V15.5702C16.1985 15.8874 15.8971 16.144 15.5247 16.144V16.144Z" fill="#D5D9FB"/>
<path d="M13.8769 10.3092L14.8508 9.75609V12.127H16.1985V8.6841C16.1985 8.47228 16.0616 8.27783 15.8425 8.17806C15.624 8.07833 15.3575 8.08954 15.1509 8.20664L13.1294 9.35429C12.8195 9.53027 12.7359 9.88608 12.9425 10.15C13.1485 10.4134 13.5663 10.484 13.8769 10.3092V10.3092Z" fill="#D5D9FB"/>
</svg>
