<svg width="48" height="48" viewBox="0 0 48 48" fill="none" xmlns="http://www.w3.org/2000/svg">
<g clip-path="url(#clip0_2860_4289)">
<path d="M43.2 4.8H40.8V2.4C40.8 0.96 39.84 0 38.4 0C36.96 0 36 0.96 36 2.4V4.8H12V2.4C12 0.96 11.04 0 9.6 0C8.16 0 7.2 0.96 7.2 2.4V4.8H2.4C1.2 4.8 0 5.76 0 7.2V40.8C0 42.24 1.2 43.2 2.4 43.2H17.04C15.36 40.32 14.4 36.96 14.4 33.6C14.4 23.04 23.04 14.4 33.6 14.4C38.16 14.4 42.24 16.08 45.6 18.72V7.2C45.6 6 44.4 4.8 43.2 4.8Z" fill="#323DA5"/>
<path d="M33.6002 19.2C25.6802 19.2 19.2002 25.68 19.2002 33.6C19.2002 41.52 25.6802 48 33.6002 48C41.5202 48 48.0002 41.52 48.0002 33.6C48.0002 25.68 41.5202 19.2 33.6002 19.2ZM38.4002 36H33.6002C32.1602 36 31.2002 35.04 31.2002 33.6V26.4C31.2002 24.96 32.1602 24 33.6002 24C35.0402 24 36.0002 24.96 36.0002 26.4V31.2H38.4002C39.8402 31.2 40.8002 32.16 40.8002 33.6C40.8002 35.04 39.8402 36 38.4002 36Z" fill="#D5D9FB"/>
</g>
<defs>
<clipPath id="clip0_2860_4289">
<rect width="48" height="48" fill="white"/>
</clipPath>
</defs>
</svg>
