<svg width="21" height="21" viewBox="0 0 21 21" fill="none" xmlns="http://www.w3.org/2000/svg">
<path d="M14.7797 0H18.335C19.8073 0 21.0004 1.20314 21.0004 2.68796V6.27325C21.0004 7.75807 19.8073 8.96121 18.335 8.96121H14.7797C13.3073 8.96121 12.1143 7.75807 12.1143 6.27325V2.68796C12.1143 1.20314 13.3073 0 14.7797 0Z" fill="#D5D9FB"/>
<path fill-rule="evenodd" clip-rule="evenodd" d="M2.66545 0H6.22071C7.6931 0 8.88616 1.20314 8.88616 2.68796V6.27325C8.88616 7.75807 7.6931 8.96121 6.22071 8.96121H2.66545C1.19307 8.96121 0 7.75807 0 6.27325V2.68796C0 1.20314 1.19307 0 2.66545 0ZM2.66545 12.0388H6.22071C7.6931 12.0388 8.88616 13.242 8.88616 14.7268V18.312C8.88616 19.7959 7.6931 21 6.22071 21H2.66545C1.19307 21 0 19.7959 0 18.312V14.7268C0 13.242 1.19307 12.0388 2.66545 12.0388ZM18.3346 12.0388H14.7793C13.3069 12.0388 12.1138 13.242 12.1138 14.7268V18.312C12.1138 19.7959 13.3069 21 14.7793 21H18.3346C19.8069 21 21 19.7959 21 18.312V14.7268C21 13.242 19.8069 12.0388 18.3346 12.0388Z" fill="#323DA5"/>
</svg>
