<svg width="22" height="24" viewBox="0 0 22 24" fill="none" xmlns="http://www.w3.org/2000/svg">
<path d="M15.8292 0H5.772C2.124 0 0 2.136 0 5.796V18.192C0 21.912 2.124 24 5.772 24H15.8292C19.536 24 21.6 21.912 21.6 18.192V5.796C21.6 2.136 19.536 0 15.8292 0Z" fill="#323DA5"/>
<path fill-rule="evenodd" clip-rule="evenodd" d="M6.09585 5.57983V5.59183C5.57865 5.59183 5.15985 6.01183 5.15985 6.52783C5.15985 7.04383 5.57865 7.46383 6.09585 7.46383H9.68265C10.1999 7.46383 10.6199 7.04383 10.6199 6.51463C10.6199 5.99983 10.1999 5.57983 9.68265 5.57983H6.09585ZM15.5039 12.8878H6.09585C5.57865 12.8878 5.15985 12.4678 5.15985 11.9518C5.15985 11.4358 5.57865 11.0146 6.09585 11.0146H15.5039C16.0199 11.0146 16.4399 11.4358 16.4399 11.9518C16.4399 12.4678 16.0199 12.8878 15.5039 12.8878ZM15.5038 18.3722H6.09576C5.73576 18.4202 5.38776 18.2402 5.19576 17.9402C5.00376 17.6282 5.00376 17.2322 5.19576 16.9322C5.38776 16.6202 5.73576 16.4522 6.09576 16.4882H15.5038C15.9826 16.5362 16.3438 16.9442 16.3438 17.4362C16.3438 17.915 15.9826 18.3242 15.5038 18.3722Z" fill="#D5D9FB"/>
</svg>
