<svg width="24" height="24" viewBox="0 0 24 24" fill="none" xmlns="http://www.w3.org/2000/svg">
<g clip-path="url(#clip0_2860_3906)">
<path d="M19.6364 12.8255H11.145V4.33409C11.145 3.84555 10.749 3.44955 10.2604 3.44955C7.51458 3.44955 4.9365 4.5154 2.99555 6.45602C1.06378 8.42173 0 10.9981 0 13.71C0 19.3677 4.60275 23.9704 10.2604 23.9704C13.0063 23.9704 15.5843 22.9046 17.5253 20.964C19.4571 18.9983 20.5209 16.422 20.5209 13.71C20.5209 13.2214 20.1249 12.8255 19.6364 12.8255ZM16.269 19.7186C14.6677 21.3198 12.534 22.2014 10.2605 22.2014C5.57812 22.2014 1.76906 18.392 1.76906 13.71C1.76906 11.4648 2.6527 9.32894 4.25189 7.70173C5.64352 6.3101 7.43766 5.4618 9.37594 5.26371V13.71C9.37594 14.1986 9.77189 14.5946 10.2605 14.5946H18.7059C18.5054 16.5116 17.6565 18.3063 16.269 19.7186Z" fill="#323DA5"/>
<path d="M2.4002 8.40001L9.6002 3.60001L10.2002 13.8H19.2002L17.4002 19.8L11.4002 23.4L4.2002 21L1.2002 16.2L2.4002 8.40001Z" fill="#323DA5"/>
<path d="M20.993 3.02504C19.0273 1.09323 16.4509 0.0294495 13.739 0.0294495C13.2505 0.0294495 12.8545 0.425403 12.8545 0.913981V10.2899C12.8545 10.7784 13.2504 11.1744 13.739 11.1744H23.1149C23.6038 11.1744 23.9995 10.7785 23.9995 10.2899C23.9994 7.57796 22.9356 5.00195 20.993 3.02504ZM14.6238 9.40539V1.84478C16.5409 2.04498 18.335 2.89323 19.7422 4.27604C21.1345 5.69275 21.9842 7.48834 22.1847 9.40539H14.6238Z" fill="#D5D9FB"/>
<path d="M13.7998 10.2V0.600006L20.9998 4.20001L23.3998 10.2H13.7998Z" fill="#D5D9FB"/>
</g>
<defs>
<clipPath id="clip0_2860_3906">
<rect width="24" height="24" fill="white"/>
</clipPath>
</defs>
</svg>
