<svg width="24" height="24" viewBox="0 0 24 24" fill="none" xmlns="http://www.w3.org/2000/svg">
<g clip-path="url(#clip0_2860_4558)">
<path opacity="0.4" d="M4.40919 12.5006C3.4926 10.8596 3.0279 9.20133 3.0279 7.57165C3.0279 6.54024 3.20339 5.54923 3.52517 4.6261C1.4007 5.76549 0 8.00269 0 10.53C0 11.7451 0.345226 12.9793 1.02614 14.1982C1.55553 15.1461 2.28904 16.0874 3.20614 16.9959C4.33186 18.1111 5.44861 18.8964 5.99572 19.2546V23.2909C5.99572 23.6793 6.31053 23.9941 6.69886 23.9941C7.0872 23.9941 7.40201 23.6793 7.40201 23.2909V19.2547C7.78274 19.0054 8.43911 18.5493 9.18197 17.9198C8.61446 17.4598 7.99364 16.9168 7.37064 16.2996C6.12354 15.0642 5.12712 13.786 4.40919 12.5006Z" fill="white"/>
<path opacity="0.4" d="M20.968 7.31482C20.9704 7.40016 20.9719 7.48575 20.9719 7.57166C20.9719 9.20134 20.5072 10.8596 19.5906 12.5006C18.8727 13.786 17.8763 15.0642 16.6292 16.2996C15.9656 16.9569 15.3048 17.5299 14.708 18.0083C15.7416 19.079 16.8086 19.8395 17.3424 20.1915V23.291C17.3424 23.6793 17.6572 23.9941 18.0456 23.9941C18.4339 23.9941 18.7487 23.6793 18.7487 23.291V20.1911C19.2443 19.8639 20.2019 19.1831 21.1661 18.2278C23.0201 16.3911 24.0001 14.4114 24.0001 12.5026C24.0001 10.3145 22.7959 8.34907 20.968 7.31482Z" fill="white"/>
<path d="M12.0003 0.00598145C7.82854 0.00598145 4.43457 3.39995 4.43457 7.57171C4.43457 12.3263 9.13781 16.2202 11.2972 17.7573V23.291C11.2972 23.6793 11.612 23.9941 12.0003 23.9941C12.3887 23.9941 12.7035 23.6793 12.7035 23.291V17.7585C13.4765 17.2093 14.5742 16.3595 15.6618 15.2789C16.8096 14.1384 17.7213 12.9681 18.3713 11.8005C19.1641 10.3766 19.5661 8.9538 19.5661 7.57171C19.566 3.39995 16.172 0.00598145 12.0003 0.00598145Z" fill="white"/>
</g>
<defs>
<clipPath id="clip0_2860_4558">
<rect width="24" height="24" fill="white"/>
</clipPath>
</defs>
</svg>
