<svg width="18" height="13" viewBox="0 0 18 13" fill="none" xmlns="http://www.w3.org/2000/svg">
<path d="M0.980469 6.66016V5.83984C0.980469 5.72266 1.01953 5.625 1.09766 5.54688C1.1888 5.45573 1.29297 5.41016 1.41016 5.41016H14.8867L11.1758 1.71875C11.1367 1.67969 11.1042 1.63411 11.0781 1.58203C11.0521 1.52995 11.0391 1.47786 11.0391 1.42578C11.0391 1.36068 11.0521 1.30208 11.0781 1.25C11.1042 1.19792 11.1367 1.15885 11.1758 1.13281L11.7617 0.546875C11.8008 0.507812 11.8464 0.47526 11.8984 0.449219C11.9505 0.423177 12.0026 0.410156 12.0547 0.410156C12.1198 0.410156 12.1719 0.423177 12.2109 0.449219C12.263 0.47526 12.3086 0.507812 12.3477 0.546875L17.4648 5.64453C17.5299 5.70964 17.5755 5.78125 17.6016 5.85938C17.6406 5.92448 17.6602 6.0026 17.6602 6.09375V6.40625C17.6602 6.4974 17.6406 6.58203 17.6016 6.66016C17.5755 6.72526 17.5299 6.79036 17.4648 6.85547L12.3477 11.9531C12.3086 11.9922 12.263 12.0247 12.2109 12.0508C12.1719 12.0768 12.1198 12.0898 12.0547 12.0898C12.0026 12.0898 11.9505 12.0768 11.8984 12.0508C11.8464 12.0247 11.8008 11.9922 11.7617 11.9531L11.1758 11.3672C11.1367 11.3281 11.1042 11.2826 11.0781 11.2305C11.0521 11.1784 11.0391 11.1263 11.0391 11.0742C11.0391 11.0221 11.0521 10.9701 11.0781 10.918C11.1042 10.8659 11.1367 10.8203 11.1758 10.7812L14.8867 7.08984H1.41016C1.29297 7.08984 1.1888 7.05078 1.09766 6.97266C1.01953 6.88151 0.980469 6.77734 0.980469 6.66016Z" fill="#FF7F5C"/>
</svg>
