<svg width="14" height="10" viewBox="0 0 14 10" fill="none" xmlns="http://www.w3.org/2000/svg">
<path d="M0.328125 5.32812V4.67188C0.328125 4.57812 0.359375 4.5 0.421875 4.4375C0.494792 4.36458 0.578125 4.32812 0.671875 4.32812H11.4531L8.48438 1.375C8.45312 1.34375 8.42708 1.30729 8.40625 1.26562C8.38542 1.22396 8.375 1.18229 8.375 1.14062C8.375 1.08854 8.38542 1.04167 8.40625 1C8.42708 0.958333 8.45312 0.927083 8.48438 0.90625L8.95312 0.4375C8.98438 0.40625 9.02083 0.380208 9.0625 0.359375C9.10417 0.338542 9.14583 0.328125 9.1875 0.328125C9.23958 0.328125 9.28125 0.338542 9.3125 0.359375C9.35417 0.380208 9.39062 0.40625 9.42188 0.4375L13.5156 4.51562C13.5677 4.56771 13.6042 4.625 13.625 4.6875C13.6562 4.73958 13.6719 4.80208 13.6719 4.875V5.125C13.6719 5.19792 13.6562 5.26562 13.625 5.32812C13.6042 5.38021 13.5677 5.43229 13.5156 5.48438L9.42188 9.5625C9.39062 9.59375 9.35417 9.61979 9.3125 9.64062C9.28125 9.66146 9.23958 9.67188 9.1875 9.67188C9.14583 9.67188 9.10417 9.66146 9.0625 9.64062C9.02083 9.61979 8.98438 9.59375 8.95312 9.5625L8.48438 9.09375C8.45312 9.0625 8.42708 9.02604 8.40625 8.98438C8.38542 8.94271 8.375 8.90104 8.375 8.85938C8.375 8.81771 8.38542 8.77604 8.40625 8.73438C8.42708 8.69271 8.45312 8.65625 8.48438 8.625L11.4531 5.67188H0.671875C0.578125 5.67188 0.494792 5.64062 0.421875 5.57812C0.359375 5.50521 0.328125 5.42188 0.328125 5.32812Z" fill="white"/>
</svg>
