<svg width="48" height="48" viewBox="0 0 48 48" fill="none" xmlns="http://www.w3.org/2000/svg">
<path d="M33.5394 19.0795C25.5659 19.0795 19.0791 25.5662 19.0791 33.5397C19.0791 41.5132 25.5659 48 33.5394 48C41.5129 48 47.9996 41.5132 47.9996 33.5397C47.9996 25.5662 41.5129 19.0795 33.5394 19.0795ZM38.8029 35.7741C39.6405 36.6117 39.6405 37.9656 38.8029 38.8033C38.3852 39.221 37.8367 39.4309 37.2883 39.4309C36.7399 39.4309 36.1915 39.221 35.7737 38.8033L33.5394 36.5689L31.305 38.8033C30.8872 39.221 30.3388 39.4309 29.7904 39.4309C29.242 39.4309 28.6936 39.221 28.2758 38.8033C27.4382 37.9656 27.4382 36.6117 28.2758 35.7741L30.5102 33.5397L28.2758 31.3054C27.4382 30.4677 27.4382 29.1138 28.2758 28.2762C29.1135 27.4386 30.4674 27.4386 31.305 28.2762L33.5394 30.5106L35.7737 28.2762C36.6114 27.4386 37.9653 27.4386 38.8029 28.2762C39.6405 29.1138 39.6405 30.4677 38.8029 31.3054L36.5685 33.5397L38.8029 35.7741Z" fill="#D5D9FB"/>
<circle cx="33.5" cy="33.5" r="9.50001" fill="#D5D9FB"/>
<path d="M27.8166 31.6873C28.331 31.6873 28.7956 31.3785 28.9946 30.904C29.8161 28.9467 31.7479 27.5672 33.9999 27.5672C35.2411 27.5672 36.379 27.9927 37.2913 28.6983L36.5763 28.809C36.332 28.8468 36.142 29.0406 36.1089 29.2855C36.0757 29.5303 36.2077 29.7678 36.4329 29.869L40.3652 31.6381C40.5376 31.7155 40.7373 31.7006 40.8962 31.5985C41.0548 31.4963 41.1511 31.3208 41.1522 31.1319L41.1726 26.7991C41.1739 26.5526 41.0133 26.3346 40.7777 26.2628C40.5418 26.1909 40.2869 26.2821 40.1504 26.4873L39.6084 27.3019C38.1633 25.8794 36.1832 25 33.9999 25C30.6895 25 27.8432 27.0216 26.6293 29.8949C26.4607 30.2932 26.5032 30.7492 26.7419 31.1095C26.9806 31.47 27.3841 31.6873 27.8166 31.6873Z" fill="white"/>
<path d="M41.2579 34.8905C41.0191 34.53 40.6156 34.3127 40.1831 34.3127C39.6687 34.3127 39.2041 34.6216 39.0051 35.0961C38.1836 37.0534 36.2518 38.4328 33.9999 38.4328C32.7586 38.4328 31.6207 38.0074 30.7084 37.3018L31.4235 37.1912C31.6677 37.1533 31.8577 36.9595 31.8909 36.7145C31.924 36.4698 31.7921 36.2323 31.5668 36.1311L27.6345 34.362C27.4621 34.2846 27.2625 34.2994 27.1036 34.4015C26.945 34.5038 26.8486 34.6793 26.8476 34.8681L26.8272 39.2009C26.8258 39.4474 26.9864 39.6654 27.222 39.7372C27.458 39.8091 27.7129 39.7179 27.8494 39.5127L28.3914 38.6981C29.8364 40.1207 31.8165 41 33.9998 41C37.3103 41 40.1565 38.9784 41.3703 36.1051C41.539 35.7068 41.4965 35.2508 41.2579 34.8905Z" fill="white"/>
<path d="M43.3808 4.82009H40.9708V2.41004C40.9708 0.964018 40.0067 0 38.5607 0C37.1147 0 36.1507 0.964018 36.1507 2.41004V4.82009H12.0502V2.41004C12.0502 0.964018 11.0862 0 9.64018 0C8.19415 0 7.23013 0.964018 7.23013 2.41004V4.82009H2.41004C1.20502 4.82009 0 5.78411 0 7.23013V40.9708C0 42.4168 1.20502 43.3808 2.41004 43.3808H17.1113C15.4243 40.4887 14.4603 37.1147 14.4603 33.7406C14.4603 23.1364 23.1364 14.4603 33.7406 14.4603C38.3197 14.4603 42.4168 16.1473 45.7908 18.7983V7.23013C45.7908 6.02511 44.5858 4.82009 43.3808 4.82009Z" fill="#323DA5"/>
</svg>
