<svg width="24" height="21" viewBox="0 0 24 21" fill="none" xmlns="http://www.w3.org/2000/svg">
<path d="M14.8292 0H5.772C2.124 0 0 2.136 0 5.796V15.192C0 18.912 2.124 21 5.772 21H14.8292C18.536 21 20.6 18.912 20.6 15.192V5.796C20.6 2.136 18.536 0 14.8292 0Z" fill="#323DA5"/>
<path d="M16.9509 6.89124C14.142 6.94865 11.6854 8.20717 10.2726 10.0953C10.1431 10.2677 9.92114 10.3674 9.69045 10.3674C9.62751 10.3674 9.5636 10.3599 9.50143 10.3448C9.2077 10.2729 9.00355 10.0462 9 9.78621C9 9.76276 9 9.73922 9 9.71596C9 5.94036 12.5428 2.87538 16.9499 2.78539V1.68791C16.9499 1.43238 17.1158 1.19881 17.3803 1.07942C17.4983 1.02643 17.6279 1 17.7566 1C17.9172 1 18.0761 1.04094 18.2128 1.12023L23.6858 4.3107C23.8819 4.42487 23.999 4.61382 24 4.81635C24.0009 5.01819 23.8846 5.20802 23.6893 5.3236L18.2172 8.55496C18.0797 8.63652 17.919 8.67737 17.7576 8.67737C17.6289 8.67737 17.501 8.65164 17.383 8.59939C17.1178 8.4808 16.9509 8.24579 16.9509 7.99026V6.89124Z" fill="#D5D9FB"/>
</svg>
